<svg width="72" height="46" viewBox="0 0 72 46" fill="none" xmlns="http://www.w3.org/2000/svg">
<path d="M1.74179 2.4183H0V44.2965C0 44.9905 0.562616 45.5531 1.25664 45.5531H69.7434C70.4374 45.5531 71 44.9905 71 44.2965V7.32795L65.1574 12.4915C65.0846 12.5558 65.0196 12.6283 64.9635 12.7076L59.4714 20.4738C59.2358 20.8068 58.8533 21.0048 58.4454 21.0048H57.5442C57.1796 21.0048 56.8329 20.8465 56.5942 20.5708L55.2201 18.984C54.9815 18.7084 54.6348 18.55 54.2702 18.55H53.7836C53.3816 18.55 53.0038 18.7423 52.7673 19.0674L47.1428 26.7998C46.9064 27.1249 46.5286 27.3172 46.1266 27.3172H38.7772C38.2204 27.3172 37.73 26.9509 37.5721 26.4169L33.853 13.8393C33.6952 13.3054 33.2048 12.939 32.648 12.939H30.8264C30.2115 12.939 29.6869 12.494 29.5866 11.8873L28.6589 6.27549C28.5586 5.66881 28.034 5.22382 27.4191 5.22382H24.6337C24.1327 5.22382 23.6795 4.92623 23.4805 4.46648L22.0105 1.0715C21.8115 0.61175 21.3584 0.314163 20.8574 0.314163H17.0178C16.4983 0.314163 16.0324 0.633845 15.8454 1.11855L13.4899 7.22495C13.303 7.70965 12.837 8.02933 12.3175 8.02933H12.1868C11.7474 8.02933 11.3399 7.79984 11.1122 7.42409L10.1453 5.82906C9.91755 5.45331 9.51008 5.22382 9.07069 5.22382H4.63546C4.1427 5.22382 3.69542 4.93582 3.49149 4.48725L2.88576 3.15486C2.68183 2.70629 2.23454 2.4183 1.74179 2.4183Z" fill="url(#paint0_linear_14337_3140)"/>
<path d="M0 2.4183H1.74179C2.23454 2.4183 2.68183 2.70629 2.88576 3.15486L3.49149 4.48725C3.69542 4.93582 4.1427 5.22382 4.63546 5.22382H9.07069C9.51008 5.22382 9.91755 5.45331 10.1453 5.82906L11.1122 7.42409C11.3399 7.79984 11.7474 8.02933 12.1868 8.02933H12.3175C12.837 8.02933 13.303 7.70965 13.4899 7.22495L15.8454 1.11855C16.0324 0.633845 16.4983 0.314163 17.0178 0.314163H20.8574C21.3584 0.314163 21.8115 0.61175 22.0105 1.0715L23.4805 4.46648C23.6795 4.92623 24.1327 5.22382 24.6337 5.22382H27.4191C28.034 5.22382 28.5586 5.66881 28.6589 6.27549L29.5866 11.8873C29.6869 12.494 30.2115 12.939 30.8264 12.939H32.648C33.2048 12.939 33.6952 13.3054 33.853 13.8393L37.5721 26.4169C37.73 26.9509 38.2204 27.3173 38.7772 27.3173H46.1266C46.5286 27.3173 46.9064 27.1249 47.1428 26.7998L52.7673 19.0675C53.0038 18.7424 53.3816 18.55 53.7836 18.55H54.2702C54.6348 18.55 54.9815 18.7084 55.2201 18.984L56.5942 20.5708C56.8329 20.8465 57.1796 21.0048 57.5442 21.0048H58.4454C58.8533 21.0048 59.2358 20.8068 59.4714 20.4738L64.9636 12.7076C65.0196 12.6283 65.0846 12.5558 65.1574 12.4915L71 7.32795" stroke="#12CD69" stroke-width="0.628319"/>
<defs>
<linearGradient id="paint0_linear_14337_3140" x1="33.615" y1="-18.8496" x2="35.4922" y2="45.5533" gradientUnits="userSpaceOnUse">
<stop stop-color="#ECF9F6" stop-opacity="0.2"/>
<stop offset="1" stop-color="white" stop-opacity="0"/>
</linearGradient>
</defs>
</svg>
