<svg width="72" height="46" viewBox="0 0 72 46" fill="none" xmlns="http://www.w3.org/2000/svg">
<path d="M7.07216 14.3633L0.260986 24.521V44.2965C0.260986 44.9905 0.823602 45.5531 1.51762 45.5531H70.0043C70.6984 45.5531 71.261 44.9905 71.261 44.2965V2.29833H69.5348C68.8504 2.29833 68.2919 2.84595 68.2784 3.53018L67.9043 22.4954C67.8908 23.1797 67.3323 23.7273 66.6479 23.7273H62.5713C61.9721 23.7273 61.4563 23.3043 61.339 22.7167L60.4747 18.3885C60.3574 17.801 59.8415 17.378 59.2424 17.378H58.7904C58.1811 17.378 57.6596 17.8151 57.5531 18.415L55.8081 28.2459C55.7017 28.8459 55.1802 29.283 54.5709 29.283H51.0332C50.4936 29.283 50.0142 28.9384 49.8421 28.4269L47.8822 22.5992C47.7102 22.0877 47.2308 21.7431 46.6911 21.7431H44.0459C43.416 21.7431 42.8834 21.2767 42.8003 20.6523L41.4002 10.1353C41.3171 9.51088 40.7845 9.04449 40.1546 9.04449H38.6973C38.1974 9.04449 37.745 8.74811 37.5453 8.28976L34.3993 1.06888C34.1996 0.610535 33.7472 0.314163 33.2473 0.314163H32.7724C32.5169 0.314163 32.2675 0.392035 32.0574 0.537398L24.7175 5.61575C24.48 5.7801 24.3063 6.02126 24.2257 6.29865L20.8099 18.0592C20.654 18.596 20.1621 18.9653 19.6031 18.9653H18.2673C17.8436 18.9653 17.4485 18.7518 17.2162 18.3975L14.5795 14.3743C14.3473 14.02 13.9522 13.8065 13.5285 13.8065H8.11588C7.69691 13.8065 7.3055 14.0153 7.07216 14.3633Z" fill="url(#paint0_linear_14337_3282)"/>
<path d="M0.260986 24.521L7.07216 14.3633C7.3055 14.0153 7.69691 13.8065 8.11588 13.8065H13.5285C13.9522 13.8065 14.3473 14.02 14.5795 14.3743L17.2162 18.3975C17.4485 18.7518 17.8436 18.9653 18.2673 18.9653H19.6031C20.1621 18.9653 20.654 18.596 20.8099 18.0592L24.2257 6.29865C24.3063 6.02126 24.48 5.7801 24.7175 5.61575L32.0574 0.537398C32.2675 0.392035 32.5169 0.314163 32.7724 0.314163H33.2473C33.7472 0.314163 34.1996 0.610535 34.3993 1.06888L37.5453 8.28976C37.745 8.74811 38.1974 9.04449 38.6973 9.04449H40.1546C40.7845 9.04449 41.3171 9.51088 41.4002 10.1353L42.8003 20.6523C42.8834 21.2767 43.416 21.7431 44.0459 21.7431H46.6911C47.2308 21.7431 47.7102 22.0877 47.8822 22.5992L49.8421 28.4269C50.0142 28.9384 50.4936 29.283 51.0332 29.283H54.5709C55.1802 29.283 55.7017 28.8459 55.8081 28.2459L57.5531 18.415C57.6596 17.8151 58.1811 17.378 58.7904 17.378H59.2424C59.8415 17.378 60.3574 17.801 60.4747 18.3885L61.339 22.7167C61.4563 23.3043 61.9721 23.7273 62.5713 23.7273H66.6479C67.3323 23.7273 67.8908 23.1797 67.9043 22.4954L68.2784 3.53018C68.2919 2.84595 68.8504 2.29833 69.5348 2.29833H71.261" stroke="#F40139" stroke-width="0.628319"/>
<defs>
<linearGradient id="paint0_linear_14337_3282" x1="35.4468" y1="-24.8186" x2="35.761" y2="45.5531" gradientUnits="userSpaceOnUse">
<stop offset="0.310269" stop-color="#FFEBEB" stop-opacity="0.2"/>
<stop offset="1" stop-color="white" stop-opacity="0"/>
</linearGradient>
</defs>
</svg>
