<svg width="72" height="46" viewBox="0 0 72 46" fill="none" xmlns="http://www.w3.org/2000/svg">
<path d="M6.41075 28.7405L0.19873 23.6633V44.2965C0.19873 44.9905 0.761346 45.5531 1.45537 45.5531H69.9421C70.6361 45.5531 71.1987 44.9905 71.1987 44.2965V11.5226C71.1987 11.1755 70.9174 10.8942 70.5704 10.8942H69.2722C68.6804 10.8942 68.1687 11.3072 68.0438 11.8857L67.2116 15.7401C67.0867 16.3186 66.5751 16.7315 65.9833 16.7315H62.3997C61.8794 16.7315 61.4129 16.4109 61.2265 15.9252L60.5852 14.2544C60.3987 13.7686 59.9322 13.448 59.412 13.448H58.3049C57.7334 13.448 57.2339 13.8337 57.0892 14.3865L55.4798 20.5358C55.3352 21.0887 54.8356 21.4743 54.2641 21.4743H50.656C50.126 21.4743 49.653 21.1418 49.4736 20.6432L47.9712 16.4682C47.7917 15.9695 47.3187 15.637 46.7888 15.637H46.5668C46.2016 15.637 45.8544 15.7959 45.6157 16.0723L42.4849 19.6973C42.3069 19.9035 42.2006 20.162 42.1822 20.4338L41.8698 25.0454C41.8251 25.7049 41.2771 26.2171 40.6161 26.2171H38.2557C37.6318 26.2171 37.1023 25.7593 37.0122 25.142L33.545 1.38929C33.4549 0.771924 32.9255 0.314163 32.3016 0.314163H25.1069C24.5395 0.314163 24.0424 0.694456 23.894 1.24216L17.832 23.6151C17.6222 24.3896 16.7501 24.7717 16.0385 24.4009L14.088 23.3846C13.5787 23.1193 12.9544 23.2329 12.5712 23.6607L8.14208 28.6059C7.69377 29.1064 6.93103 29.1657 6.41075 28.7405Z" fill="url(#paint0_linear_14337_2106)"/>
<path d="M0.19873 23.6633L6.41075 28.7405C6.93103 29.1657 7.69377 29.1064 8.14208 28.6059L12.5712 23.6607C12.9544 23.2329 13.5787 23.1193 14.088 23.3846L16.0385 24.4009C16.7501 24.7717 17.6222 24.3896 17.832 23.6151L23.894 1.24216C24.0424 0.694456 24.5395 0.314163 25.1069 0.314163H32.3016C32.9255 0.314163 33.4549 0.771924 33.545 1.38929L37.0122 25.142C37.1023 25.7593 37.6318 26.2171 38.2557 26.2171H40.6161C41.2771 26.2171 41.8251 25.7049 41.8698 25.0454L42.1822 20.4338C42.2006 20.162 42.3069 19.9035 42.4849 19.6973L45.6157 16.0723C45.8544 15.7959 46.2016 15.637 46.5668 15.637H46.7888C47.3187 15.637 47.7917 15.9695 47.9712 16.4682L49.4736 20.6432C49.653 21.1418 50.126 21.4743 50.656 21.4743H54.2642C54.8356 21.4743 55.3352 21.0887 55.4798 20.5358L57.0892 14.3865C57.2339 13.8337 57.7334 13.448 58.3049 13.448H59.412C59.9322 13.448 60.3987 13.7686 60.5852 14.2544L61.2265 15.9252C61.4129 16.4109 61.8794 16.7315 62.3997 16.7315H65.9833C66.5751 16.7315 67.0867 16.3186 67.2116 15.7401L68.0438 11.8857C68.1687 11.3072 68.6804 10.8942 69.2722 10.8942H71.1987" stroke="#F40139" stroke-width="0.628319"/>
<defs>
<linearGradient id="paint0_linear_14337_2106" x1="35.3846" y1="-11.6239" x2="35.6987" y2="45.5531" gradientUnits="userSpaceOnUse">
<stop offset="0.236707" stop-color="#FFEBEB" stop-opacity="0.2"/>
<stop offset="1" stop-color="white" stop-opacity="0"/>
</linearGradient>
</defs>
</svg>
