<svg width="72" height="46" viewBox="0 0 72 46" fill="none" xmlns="http://www.w3.org/2000/svg">
<path d="M6.34538 17.2059L0.481769 25.7246C0.337498 25.9342 0.260254 26.1826 0.260254 26.4371V44.2965C0.260254 44.9905 0.82287 45.5531 1.51689 45.5531H70.0036C70.6976 45.5531 71.2603 44.9905 71.2603 44.2965V3.4327C71.2603 3.08569 70.979 2.80438 70.6319 2.80438H69.5642C69.0635 2.80438 68.6106 3.10159 68.4114 3.5609L67.8074 4.95311C67.6081 5.41243 67.1552 5.70963 66.6546 5.70963H62.2329C61.8334 5.70963 61.4577 5.89957 61.2209 6.22127L59.7371 8.23677C59.1213 9.07331 57.8141 8.84386 57.5199 7.84759L55.5617 1.21498C55.404 0.680796 54.9135 0.314163 54.3565 0.314163H50.8311C50.2472 0.314163 49.7403 0.716357 49.6074 1.28495L48.8164 4.6715C48.6765 5.27035 48.1237 5.67999 47.5101 5.63957L43.556 5.37915C42.8519 5.33278 42.2476 5.87511 42.2179 6.58012L41.9027 14.0518C41.8744 14.7246 41.3206 15.2555 40.6472 15.2555H38.2584C37.6605 15.2555 37.1454 15.6767 37.0267 16.2628L34.0737 30.8496C33.955 31.4356 33.4399 31.8569 32.842 31.8569H25.3164C24.887 31.8569 24.4874 31.6377 24.2567 31.2757L18.4123 22.1057C17.9541 21.3869 16.9285 21.323 16.3848 21.9795L14.786 23.9099C14.2477 24.5599 13.2345 24.505 12.7695 23.8007L8.42922 17.2261C7.93826 16.4824 6.85065 16.4719 6.34538 17.2059Z" fill="url(#paint0_linear_14337_8660)"/>
<path d="M0.260254 26.4555L6.34007 17.4823C6.84434 16.7381 7.94424 16.7487 8.4341 17.5025L12.7651 24.1674C13.2293 24.8817 14.2546 24.9369 14.7928 24.2767L16.3779 22.3324C16.9214 21.6657 17.9592 21.7299 18.4164 22.4586L24.2577 31.7696C24.4876 32.136 24.8897 32.3584 25.3222 32.3584H32.8388C33.4381 32.3584 33.9541 31.9352 34.0712 31.3474L37.0292 16.5041C37.1463 15.9163 37.6622 15.493 38.2616 15.493H40.6464C41.3202 15.493 41.874 14.9617 41.902 14.2885L42.2186 6.66153C42.2479 5.95566 42.8532 5.41266 43.5581 5.45982L47.5053 5.72392C48.121 5.76512 48.6756 5.35311 48.8139 4.75169L49.61 1.2892C49.7412 0.71856 50.2492 0.314163 50.8347 0.314163H54.3523C54.9113 0.314163 55.4031 0.68336 55.559 1.22011L57.5197 7.9666C57.8115 8.97068 59.1304 9.19997 59.744 8.35329L61.2212 6.31468C61.4576 5.98851 61.836 5.79542 62.2388 5.79542H66.6494C67.1527 5.79542 67.6074 5.49514 67.8051 5.03229L68.4137 3.6071C68.6113 3.14425 69.0661 2.84397 69.5693 2.84397H71.2603" stroke="#12CD69" stroke-width="0.628319"/>
<defs>
<linearGradient id="paint0_linear_14337_8660" x1="35.4461" y1="-9.11062" x2="35.7537" y2="45.5531" gradientUnits="userSpaceOnUse">
<stop stop-color="#ECF9F6" stop-opacity="0.2"/>
<stop offset="1" stop-color="white" stop-opacity="0"/>
</linearGradient>
</defs>
</svg>
