<svg width="18" height="18" viewBox="0 0 18 18" fill="none" xmlns="http://www.w3.org/2000/svg">
<path d="M2.4375 15.5625C2.4375 15.9767 2.77329 16.3125 3.1875 16.3125C3.60171 16.3125 3.9375 15.9767 3.9375 15.5625L3.9375 12.0375C3.9375 11.9132 4.03824 11.8125 4.1625 11.8125H11.9467C12.7482 11.8125 13.4003 11.8125 13.8941 11.7548C14.3842 11.6976 14.875 11.5698 15.1983 11.1761C15.3448 10.9977 15.4532 10.7913 15.5157 10.569C15.6564 10.0686 15.4597 9.5993 15.2111 9.1863C14.9615 8.77167 14.5439 8.24002 14.0648 7.62995C13.8499 7.35633 13.7141 7.18234 13.6236 7.0407C13.5388 6.90789 13.5237 6.8478 13.5194 6.81261C13.5142 6.771 13.5142 6.729 13.5194 6.68739C13.5237 6.6522 13.5388 6.59211 13.6236 6.4593C13.7141 6.31766 13.8498 6.14377 14.0647 5.87015C14.5439 5.26003 14.9615 4.72836 15.2111 4.31371C15.4597 3.9007 15.6564 3.43137 15.5157 2.93097C15.4532 2.70866 15.3448 2.50232 15.1983 2.32393C14.875 1.93015 14.3842 1.80241 13.8941 1.74516C13.4003 1.68747 12.7482 1.68749 11.9467 1.6875H7.67225C6.59537 1.68749 5.73262 1.68748 5.05519 1.77446C4.35582 1.86425 3.76936 2.05547 3.30157 2.50222C2.83013 2.95244 2.62497 3.52278 2.52925 4.20272C2.46832 4.6355 2.44785 5.14596 2.44097 5.73987L2.4375 15.5625Z" fill="#F40139"/>
</svg>
