<svg width="18" height="18" viewBox="0 0 18 18" fill="none" xmlns="http://www.w3.org/2000/svg">
<path d="M11.9463 1.6875C12.7478 1.68749 13.4007 1.68744 13.8945 1.74512C14.3845 1.8024 14.8751 1.93057 15.1982 2.32422C15.3446 2.5025 15.4531 2.70853 15.5156 2.93066C15.6563 3.43103 15.4595 3.90049 15.2109 4.31348C14.9613 4.72812 14.569 5.22877 14.0898 5.83887L14.0645 5.87012C13.8498 6.1434 13.7145 6.31744 13.624 6.45898C13.5392 6.59179 13.5239 6.65232 13.5195 6.6875C13.5144 6.72905 13.5144 6.77095 13.5195 6.8125C13.5239 6.84768 13.5392 6.90821 13.624 7.04102C13.7145 7.18256 13.8498 7.3566 14.0645 7.62988L14.0898 7.66113C14.569 8.27123 14.9613 8.77188 15.2109 9.18652C15.4595 9.59951 15.6563 10.069 15.5156 10.5693C15.4531 10.7915 15.3446 10.9975 15.1982 11.1758C14.8751 11.5694 14.3845 11.6976 13.8945 11.7549C13.4007 11.8126 12.7478 11.8125 11.9463 11.8125H3.5625V15.75C3.5625 16.0607 3.31066 16.3125 3 16.3125C2.68934 16.3125 2.4375 16.0607 2.4375 15.75V5.99023C2.44164 5.28833 2.46002 4.69548 2.5293 4.20312C2.62502 3.52318 2.83032 2.95218 3.30176 2.50195C3.76951 2.05536 4.35641 1.8642 5.05566 1.77441C5.73294 1.6875 6.59542 1.68749 7.67188 1.6875H11.9463ZM7.71191 2.8125C6.58613 2.8125 5.79563 2.81392 5.19824 2.89062C4.61463 2.96559 4.30035 3.1032 4.07812 3.31543C3.85955 3.52418 3.72035 3.81408 3.64355 4.35938C3.56422 4.92291 3.5625 5.6705 3.5625 6.74512L3.63184 10.6875H11.9092C12.7575 10.6875 13.3432 10.6868 13.7637 10.6377C14.1956 10.5872 14.2987 10.499 14.3291 10.4619C14.3782 10.402 14.4129 10.3348 14.4326 10.2646C14.4406 10.2363 14.4614 10.1227 14.2471 9.7666C14.038 9.41927 13.6897 8.97359 13.1797 8.32422L13.1641 8.30469C12.9695 8.05691 12.7993 7.8398 12.6758 7.64648C12.5433 7.43909 12.4351 7.21609 12.4023 6.9502C12.386 6.81731 12.386 6.68269 12.4023 6.5498C12.4351 6.28391 12.5433 6.06091 12.6758 5.85352C12.7993 5.6602 12.9695 5.44309 13.1641 5.19531L13.1797 5.17578C13.6897 4.52641 14.038 4.08073 14.2471 3.7334C14.4614 3.37731 14.4406 3.26372 14.4326 3.23535C14.4129 3.16524 14.3782 3.09798 14.3291 3.03809C14.2987 3.00101 14.1956 2.91277 13.7637 2.8623C13.3432 2.81318 12.7575 2.8125 11.9092 2.8125H7.71191Z" fill="#0F1613"/>
</svg>
