<svg width="24" height="24" viewBox="0 0 24 24" fill="none" xmlns="http://www.w3.org/2000/svg">
<path d="M7.68945 14.4736C10.3272 12.8426 13.6728 12.8426 16.3105 14.4736C16.3883 14.5217 16.4866 14.5794 16.5996 14.6455C17.1119 14.9453 17.9256 15.4213 18.4805 15.9854C18.8288 16.3395 19.1768 16.8221 19.2402 17.4238C19.308 18.068 19.0343 18.6647 18.5127 19.1807C17.6511 20.033 16.5839 20.7499 15.1846 20.75H8.81543C7.41608 20.75 6.34889 20.033 5.4873 19.1807C4.96574 18.6647 4.69196 18.068 4.75977 17.4238C4.82322 16.822 5.17113 16.3395 5.51953 15.9854C6.0743 15.4214 6.88712 14.9453 7.39941 14.6455C7.51258 14.5793 7.61169 14.5217 7.68945 14.4736ZM16.5459 12.4268C18.1911 12.0213 19.9535 12.3132 21.4307 13.3027C21.4857 13.3396 21.5572 13.3856 21.6406 13.4385C22.032 13.6863 22.6855 14.0998 23.1289 14.5879C23.4099 14.8973 23.6911 15.3212 23.7422 15.8467C23.7965 16.4062 23.5777 16.9299 23.1533 17.3848C22.5856 17.9933 21.8928 18.5512 20.8691 18.707C20.6302 18.7434 20.5103 18.7617 20.4385 18.6875C20.3667 18.6131 20.3936 18.471 20.4473 18.1875C20.501 17.904 20.5162 17.6047 20.4834 17.293C20.3771 16.2839 19.8063 15.5499 19.3721 15.1084C18.6991 14.4244 17.7671 13.879 17.2725 13.5898C17.0657 13.462 16.784 13.3013 16.4971 13.1475C16.1188 12.9447 15.9294 12.8432 15.9463 12.707C15.9635 12.5707 16.158 12.5224 16.5459 12.4268ZM2.57031 13.3027C4.04766 12.3132 5.80984 12.0211 7.45508 12.4268C7.84281 12.5224 8.03657 12.5707 8.05371 12.707C8.07059 12.8432 7.88125 12.9447 7.50293 13.1475C7.21587 13.3013 6.93428 13.462 6.72754 13.5898C6.23294 13.879 5.30191 14.4243 4.62891 15.1084C4.19462 15.5498 3.62295 16.2835 3.5166 17.293C3.48378 17.6047 3.49903 17.904 3.55273 18.1875C3.60643 18.471 3.63329 18.6131 3.56152 18.6875C3.48971 18.7617 3.36993 18.7434 3.13086 18.707C2.10721 18.5512 1.41539 17.9932 0.847656 17.3848C0.423171 16.9298 0.203535 16.4063 0.257812 15.8467C0.308878 15.3211 0.590107 14.8973 0.871094 14.5879C1.31447 14.0998 1.96795 13.6863 2.35938 13.4385C2.44301 13.3855 2.51522 13.3396 2.57031 13.3027ZM6 5.25C6.16555 5.25002 6.32841 5.26224 6.4873 5.28613C6.6769 5.31465 6.77159 5.32942 6.82031 5.4082C6.86888 5.48698 6.83546 5.59163 6.76758 5.80078C6.5939 6.33594 6.5 6.90696 6.5 7.5C6.5 8.73993 6.91029 9.88381 7.60254 10.8037C7.73445 10.979 7.8004 11.0671 7.78027 11.1572C7.75992 11.2475 7.67466 11.292 7.50488 11.3809C7.05493 11.6164 6.54308 11.75 6 11.75C4.20508 11.75 2.75 10.2949 2.75 8.5C2.75 6.70508 4.20508 5.25 6 5.25ZM12 3.25C14.3471 3.25016 16.25 5.15289 16.25 7.5C16.25 9.84711 14.3471 11.7498 12 11.75C9.65279 11.75 7.75 9.84721 7.75 7.5C7.75 5.15279 9.65279 3.25 12 3.25ZM18 5.25C19.7948 5.25013 21.25 6.70516 21.25 8.5C21.25 10.2948 19.7948 11.7499 18 11.75C17.457 11.7499 16.945 11.6164 16.4951 11.3809C16.3254 11.292 16.2401 11.2475 16.2197 11.1572C16.1996 11.0671 16.2656 10.979 16.3975 10.8037C17.0897 9.88382 17.5 8.7399 17.5 7.5C17.5 6.90698 17.4061 6.33592 17.2324 5.80078C17.1646 5.59169 17.1312 5.48698 17.1797 5.4082C17.2284 5.32953 17.3233 5.31462 17.5127 5.28613C17.6715 5.26226 17.8346 5.25002 18 5.25Z" fill="#505553"/>
</svg>
