<svg width="72" height="46" viewBox="0 0 72 46" fill="none" xmlns="http://www.w3.org/2000/svg">
<path d="M6.34489 17.2062L0.481281 25.7249C0.33701 25.9345 0.259766 26.1829 0.259766 26.4374V44.2968C0.259766 44.9908 0.822381 45.5534 1.5164 45.5534H70.0031C70.6972 45.5534 71.2598 44.9908 71.2598 44.2968V3.43299C71.2598 3.08598 70.9785 2.80467 70.6314 2.80467H69.5637C69.063 2.80467 68.6101 3.10188 68.4109 3.56119L67.8069 4.9534C67.6076 5.41272 67.1547 5.70992 66.6541 5.70992H62.2324C61.8329 5.70992 61.4572 5.89986 61.2204 6.22156L59.7366 8.23706C59.1208 9.0736 57.8136 8.84415 57.5194 7.84788L55.5612 1.21527C55.4035 0.681086 54.913 0.314453 54.356 0.314453H50.8307C50.2468 0.314453 49.7398 0.716647 49.607 1.28524L48.8159 4.67179C48.676 5.27064 48.1232 5.68028 47.5096 5.63986L43.5555 5.37944C42.8514 5.33307 42.2471 5.8754 42.2174 6.58041L41.9023 14.0521C41.8739 14.7249 41.3202 15.2558 40.6467 15.2558H38.2579C37.66 15.2558 37.1449 15.677 37.0263 16.263L34.0732 30.8499C33.9545 31.4359 33.4394 31.8572 32.8415 31.8572H25.3159C24.8866 31.8572 24.4869 31.638 24.2562 31.276L18.4118 22.106C17.9537 21.3872 16.928 21.3233 16.3843 21.9798L14.7855 23.9102C14.2472 24.5602 13.234 24.5053 12.769 23.801L8.42874 17.2264C7.93777 16.4827 6.85017 16.4722 6.34489 17.2062Z" fill="url(#paint0_linear_14300_3124)"/>
<path d="M0.259766 26.4558L6.33958 17.4826C6.84385 16.7384 7.94375 16.749 8.43361 17.5028L12.7646 24.1677C13.2288 24.882 14.2541 24.9372 14.7923 24.277L16.3774 22.3327C16.921 21.666 17.9587 21.7302 18.4159 22.4589L24.2572 31.7699C24.4871 32.1363 24.8892 32.3587 25.3217 32.3587H32.8383C33.4377 32.3587 33.9536 31.9354 34.0707 31.3477L37.0287 16.5043C37.1458 15.9166 37.6618 15.4933 38.2611 15.4933H40.6459C41.3197 15.4933 41.8735 14.962 41.9015 14.2888L42.2181 6.66182C42.2474 5.95595 42.8527 5.41295 43.5576 5.46011L47.5048 5.72421C48.1205 5.76541 48.6751 5.3534 48.8134 4.75198L49.6095 1.28949C49.7407 0.71885 50.2487 0.314453 50.8342 0.314453H54.3518C54.9108 0.314453 55.4026 0.68365 55.5586 1.2204L57.5192 7.96689C57.811 8.97097 59.1299 9.20026 59.7435 8.35358L61.2208 6.31497C61.4571 5.9888 61.8355 5.79571 62.2383 5.79571H66.6489C67.1522 5.79571 67.6069 5.49543 67.8046 5.03258L68.4132 3.60739C68.6108 3.14454 69.0656 2.84426 69.5689 2.84426H71.2598" stroke="#12CD69" stroke-width="0.628319"/>
<defs>
<linearGradient id="paint0_linear_14300_3124" x1="35.4456" y1="-9.11033" x2="35.7532" y2="45.5534" gradientUnits="userSpaceOnUse">
<stop stop-color="#ECF9F6"/>
<stop offset="1" stop-color="white"/>
</linearGradient>
</defs>
</svg>
