<svg width="72" height="46" viewBox="0 0 72 46" fill="none" xmlns="http://www.w3.org/2000/svg">
<path d="M6.41124 28.7408L0.199219 23.6636V44.2968C0.199219 44.9908 0.761834 45.5534 1.45586 45.5534H69.9426C70.6366 45.5534 71.1992 44.9908 71.1992 44.2968V11.5228C71.1992 11.1758 70.9179 10.8945 70.5709 10.8945H69.2727C68.6808 10.8945 68.1692 11.3075 68.0443 11.8859L67.2121 15.7404C67.0872 16.3189 66.5756 16.7318 65.9838 16.7318H62.4002C61.8799 16.7318 61.4134 16.4112 61.227 15.9255L60.5856 14.2547C60.3992 13.7689 59.9327 13.4483 59.4125 13.4483H58.3054C57.7339 13.4483 57.2344 13.8339 57.0897 14.3868L55.4803 20.5361C55.3356 21.089 54.8361 21.4746 54.2646 21.4746H50.6565C50.1265 21.4746 49.6535 21.1421 49.4741 20.6435L47.9717 16.4685C47.7922 15.9698 47.3192 15.6373 46.7893 15.6373H46.5672C46.202 15.6373 45.8549 15.7962 45.6162 16.0726L42.4854 19.6976C42.3073 19.9038 42.2011 20.1623 42.1827 20.4341L41.8703 25.0457C41.8256 25.7052 41.2776 26.2174 40.6165 26.2174H38.2562C37.6322 26.2174 37.1028 25.7596 37.0127 25.1423L33.5455 1.38958C33.4554 0.772214 32.926 0.314453 32.302 0.314453H25.1074C24.54 0.314453 24.0429 0.694746 23.8945 1.24245L17.8325 23.6154C17.6227 24.3899 16.7506 24.772 16.039 24.4012L14.0885 23.3849C13.5792 23.1196 12.9548 23.2332 12.5717 23.661L8.14256 28.6062C7.69426 29.1067 6.93152 29.166 6.41124 28.7408Z" fill="url(#paint0_linear_14300_6842)"/>
<path d="M0.199219 23.6636L6.41124 28.7408C6.93152 29.166 7.69426 29.1067 8.14256 28.6062L12.5717 23.661C12.9548 23.2332 13.5792 23.1196 14.0885 23.3849L16.039 24.4012C16.7506 24.772 17.6227 24.3899 17.8325 23.6154L23.8945 1.24245C24.0429 0.694746 24.54 0.314453 25.1074 0.314453H32.302C32.926 0.314453 33.4554 0.772214 33.5455 1.38958L37.0127 25.1423C37.1028 25.7596 37.6322 26.2174 38.2562 26.2174H40.6165C41.2776 26.2174 41.8256 25.7052 41.8703 25.0457L42.1827 20.4341C42.2011 20.1623 42.3073 19.9038 42.4854 19.6976L45.6162 16.0726C45.8549 15.7962 46.202 15.6373 46.5672 15.6373H46.7893C47.3192 15.6373 47.7922 15.9698 47.9717 16.4685L49.4741 20.6435C49.6535 21.1421 50.1265 21.4746 50.6565 21.4746H54.2646C54.8361 21.4746 55.3356 21.089 55.4803 20.5361L57.0897 14.3868C57.2344 13.8339 57.7339 13.4483 58.3054 13.4483H59.4125C59.9327 13.4483 60.3992 13.7689 60.5856 14.2547L61.227 15.9255C61.4134 16.4112 61.8799 16.7318 62.4002 16.7318H65.9838C66.5756 16.7318 67.0872 16.3189 67.2121 15.7404L68.0443 11.8859C68.1692 11.3075 68.6808 10.8945 69.2727 10.8945H71.1992" stroke="#F40139" stroke-width="0.628319"/>
<defs>
<linearGradient id="paint0_linear_14300_6842" x1="35.3851" y1="-11.6236" x2="35.6992" y2="45.5534" gradientUnits="userSpaceOnUse">
<stop offset="0.236707" stop-color="#FFEBEB"/>
<stop offset="1" stop-color="white"/>
</linearGradient>
</defs>
</svg>
