<svg width="72" height="46" viewBox="0 0 72 46" fill="none" xmlns="http://www.w3.org/2000/svg">
<path d="M1.74179 2.41859H0V44.2968C0 44.9908 0.562616 45.5534 1.25664 45.5534H69.7434C70.4374 45.5534 71 44.9908 71 44.2968V7.32824L65.1574 12.4918C65.0846 12.5561 65.0196 12.6286 64.9635 12.7079L59.4714 20.4741C59.2358 20.8071 58.8533 21.0051 58.4454 21.0051H57.5442C57.1796 21.0051 56.8329 20.8468 56.5942 20.5711L55.2201 18.9843C54.9815 18.7087 54.6348 18.5503 54.2702 18.5503H53.7836C53.3816 18.5503 53.0038 18.7426 52.7673 19.0677L47.1428 26.8001C46.9064 27.1252 46.5286 27.3175 46.1266 27.3175H38.7772C38.2204 27.3175 37.73 26.9512 37.5721 26.4172L33.853 13.8396C33.6952 13.3057 33.2048 12.9393 32.648 12.9393H30.8264C30.2115 12.9393 29.6869 12.4943 29.5866 11.8876L28.6589 6.27578C28.5586 5.6691 28.034 5.22411 27.4191 5.22411H24.6337C24.1327 5.22411 23.6795 4.92652 23.4805 4.46677L22.0105 1.07179C21.8115 0.61204 21.3584 0.314453 20.8574 0.314453H17.0178C16.4983 0.314453 16.0324 0.634135 15.8454 1.11884L13.4899 7.22524C13.303 7.70994 12.837 8.02962 12.3175 8.02962H12.1868C11.7474 8.02962 11.3399 7.80013 11.1122 7.42438L10.1453 5.82935C9.91755 5.4536 9.51008 5.22411 9.07069 5.22411H4.63546C4.1427 5.22411 3.69542 4.93611 3.49149 4.48754L2.88576 3.15515C2.68183 2.70658 2.23454 2.41859 1.74179 2.41859Z" fill="url(#paint0_linear_14300_1450)"/>
<path d="M0 2.41859H1.74179C2.23454 2.41859 2.68183 2.70658 2.88576 3.15515L3.49149 4.48754C3.69542 4.93611 4.1427 5.22411 4.63546 5.22411H9.07069C9.51008 5.22411 9.91755 5.4536 10.1453 5.82935L11.1122 7.42438C11.3399 7.80013 11.7474 8.02962 12.1868 8.02962H12.3175C12.837 8.02962 13.303 7.70994 13.4899 7.22524L15.8454 1.11884C16.0324 0.634135 16.4983 0.314453 17.0178 0.314453H20.8574C21.3584 0.314453 21.8115 0.61204 22.0105 1.07179L23.4805 4.46677C23.6795 4.92652 24.1327 5.22411 24.6337 5.22411H27.4191C28.034 5.22411 28.5586 5.6691 28.6589 6.27578L29.5866 11.8876C29.6869 12.4943 30.2115 12.9393 30.8264 12.9393H32.648C33.2048 12.9393 33.6952 13.3057 33.853 13.8396L37.5721 26.4172C37.73 26.9512 38.2204 27.3175 38.7772 27.3175H46.1266C46.5286 27.3175 46.9064 27.1252 47.1428 26.8001L52.7673 19.0677C53.0038 18.7426 53.3816 18.5503 53.7836 18.5503H54.2702C54.6348 18.5503 54.9815 18.7087 55.2201 18.9843L56.5942 20.5711C56.8329 20.8468 57.1796 21.0051 57.5442 21.0051H58.4454C58.8533 21.0051 59.2358 20.8071 59.4714 20.4741L64.9636 12.7079C65.0196 12.6286 65.0846 12.5561 65.1574 12.4918L71 7.32824" stroke="#12CD69" stroke-width="0.628319"/>
<defs>
<linearGradient id="paint0_linear_14300_1450" x1="33.615" y1="-18.8493" x2="35.4922" y2="45.5536" gradientUnits="userSpaceOnUse">
<stop stop-color="#ECF9F6"/>
<stop offset="1" stop-color="white"/>
</linearGradient>
</defs>
</svg>
