<svg width="22" height="20" viewBox="0 0 22 20" fill="none" xmlns="http://www.w3.org/2000/svg">
<path fill-rule="evenodd" clip-rule="evenodd" d="M10.79 0H10.69C9.79 0 9.04001 7.81268e-05 8.45001 0.0800781C7.82001 0.160078 7.26 0.350059 6.8 0.810059C6.35 1.26006 6.16 1.82996 6.08 2.45996C6.02 2.88996 6.01 3.41001 6 4.01001C5.39 4.02001 4.86 4.04009 4.39 4.09009C3.5 4.18009 2.76 4.37005 2.11 4.80005C1.59 5.15005 1.15 5.59011 0.800003 6.11011C0.370003 6.76011 0.180012 7.50014 0.0900116 8.39014C1.15931e-05 9.25014 0 10.42 0 11.79C0 13.16 1.15931e-05 14.2501 0.0900116 15.1101C0.180012 16.0001 0.370003 16.7401 0.800003 17.3901C1.15 17.9101 1.59 18.35 2.11 18.7C2.76 19.13 3.5 19.3199 4.39 19.4099C5.26 19.4999 6.34001 19.5 7.71001 19.5H13.79C15.16 19.5 16.24 19.4999 17.11 19.4099C18 19.3199 18.74 19.13 19.39 18.7C19.91 18.35 20.35 17.9101 20.7 17.3901C21.13 16.7401 21.32 16.0001 21.41 15.1101C21.5 14.2501 21.5 13.16 21.5 11.79C21.5 10.42 21.5 9.25014 21.41 8.39014C21.32 7.50014 21.13 6.76011 20.7 6.11011C20.35 5.59011 19.91 5.15005 19.39 4.80005C18.74 4.37005 18 4.18009 17.11 4.09009C16.64 4.04009 16.11 4.02001 15.5 4.01001C15.5 3.41001 15.48 2.88996 15.42 2.45996C15.34 1.82996 15.15 1.26006 14.7 0.810059C14.24 0.350059 13.68 0.160078 13.05 0.0800781C12.46 7.81268e-05 11.71 0 10.81 0H10.79ZM13.99 4C13.99 3.43 13.97 2.99991 13.92 2.65991C13.86 2.18991 13.75 2.00012 13.62 1.87012C13.49 1.74012 13.29 1.63007 12.83 1.57007C12.35 1.50007 11.7 1.5 10.73 1.5C9.76001 1.5 9.12 1.50007 8.63 1.57007C8.17 1.63007 7.97001 1.74012 7.84001 1.87012C7.71001 2.00012 7.60001 2.18991 7.54001 2.65991C7.49001 2.99991 7.48 3.43 7.47 4H13.97H13.99ZM4.02 8.53003C4.14 8.13003 4.56001 7.91003 4.96001 8.03003L5.61 8.23999C8.9 9.24999 12.57 9.24999 15.86 8.23999L16.51 8.03003C16.91 7.91003 17.33 8.13003 17.45 8.53003C17.57 8.92003 17.35 9.33997 16.96 9.46997L16.31 9.66992C14.76 10.1499 13.13 10.42 11.49 10.49V11.75C11.49 12.16 11.15 12.5 10.74 12.5C10.33 12.5 9.99001 12.16 9.99001 11.75V10.49C8.35001 10.42 6.72 10.1499 5.17 9.66992L4.52 9.46997C4.12 9.33997 3.9 8.92003 4.03 8.53003H4.02Z" fill="#505553"/>
</svg>
