<svg width="68" height="68" viewBox="0 0 68 68" fill="none" xmlns="http://www.w3.org/2000/svg">
<rect width="68" height="68" rx="34" fill="#FEE6EB"/>
<path d="M18.2041 18.2051C18.6434 17.7657 19.3566 17.7657 19.7959 18.2051L49.7959 48.2051C50.2349 48.6444 50.2349 49.3566 49.7959 49.7959C49.3566 50.2352 48.6434 50.2352 48.2041 49.7959L43.7715 45.3633C41.8605 47.221 39.5121 48.4476 36.8223 49.4775L36.7725 49.4961C35.7979 49.8694 35.1295 50.126 34.0029 50.126C32.8763 50.126 32.208 49.8693 31.2334 49.4961L31.1836 49.4775C21.268 45.6812 17.2076 35.9244 19.0645 25.626C19.0672 25.6107 19.0705 25.5953 19.0732 25.5801C19.1494 25.1575 19.2206 24.7629 19.3135 24.4375C19.4158 24.079 19.5697 23.704 19.8701 23.3701C20.0438 23.1771 20.2481 23.0625 20.3623 23.0039C20.4971 22.9348 20.6392 22.8778 20.7676 22.832C20.8827 22.791 21.0043 22.7532 21.126 22.7178L18.2041 19.7959C17.765 19.3566 17.7651 18.6444 18.2041 18.2051ZM22.9434 24.6084L22.9404 24.6094L22.9287 24.6113L22.8789 24.6201C22.8345 24.6283 22.7694 24.6406 22.6904 24.6562C22.5311 24.6879 22.3185 24.7332 22.1016 24.7861C21.8801 24.8402 21.6764 24.897 21.5244 24.9512C21.5188 24.9532 21.513 24.9551 21.5078 24.957C21.4988 24.9823 21.488 25.0146 21.4766 25.0547C21.4183 25.2588 21.3667 25.5409 21.2793 26.0254C19.5683 35.5144 23.3058 44.0518 31.9883 47.376C32.9849 47.7575 33.3123 47.876 34.0029 47.876C34.6935 47.876 35.0211 47.7575 36.0176 47.376C38.5575 46.4034 40.5826 45.3176 42.1807 43.7725L23.0029 24.5947C22.9832 24.5993 22.9636 24.6049 22.9434 24.6084ZM33.9971 17.875C36.518 17.875 38.5685 18.7247 40.3574 19.6484C40.8977 19.9275 41.4001 20.204 41.8799 20.4678C43.0545 21.1136 44.0962 21.6862 45.2393 22.0498L45.2773 22.0615C45.9481 22.2749 46.5045 22.4516 46.9258 22.6162C47.3221 22.771 47.7933 22.9838 48.1279 23.3545C48.4288 23.6879 48.584 24.0628 48.6865 24.4209C48.7795 24.7458 48.8506 25.1401 48.9268 25.5615L48.9355 25.6074C49.9069 30.9791 49.2702 36.2028 46.9951 40.5244C46.7057 41.0742 46.0254 41.2854 45.4756 40.9961C44.9259 40.7067 44.7147 40.0263 45.0039 39.4766C47.0087 35.6684 47.6177 30.9681 46.7207 26.0078C46.6333 25.5246 46.5816 25.2433 46.5234 25.04C46.4974 24.949 46.4767 24.8999 46.4648 24.876C46.4328 24.8572 46.3341 24.8005 46.1074 24.7119C45.7622 24.577 45.2763 24.4219 44.5576 24.1934C43.1895 23.7582 41.8566 23.0251 40.6104 22.3398C40.1706 22.098 39.741 21.8622 39.3252 21.6475C37.6569 20.786 35.9874 20.125 33.9971 20.125C31.6503 20.125 29.763 21.0404 27.7881 22.1182C27.2428 22.4155 26.5593 22.215 26.2617 21.6699C25.9641 21.1245 26.1655 20.4402 26.7109 20.1426C28.7119 19.0507 31.0356 17.875 33.9971 17.875Z" fill="#F40139"/>
</svg>
