<svg width="80" height="80" viewBox="0 0 80 80" fill="none" xmlns="http://www.w3.org/2000/svg">
<rect x="0.411656" y="0.411656" width="79.1767" height="79.1767" rx="39.5883" fill="white"/>
<rect x="0.411656" y="0.411656" width="79.1767" height="79.1767" rx="39.5883" stroke="#DCE3E3" stroke-width="0.823312"/>
<g filter="url(#filter0_i_12589_24980)">
<rect x="20" y="20" width="40" height="40" rx="20" fill="#12CD69"/>
<path d="M39.9848 30C43.0535 30 45.5227 32.4148 45.5227 35.396V36.9293C47.2451 37.467 48.5 39.0261 48.5 40.8884V45.8253C48.5 48.1308 46.5886 50 44.2322 50H35.7688C33.4114 50 31.5 48.1308 31.5 45.8253V40.8884C31.5 39.0261 32.7559 37.467 34.4773 36.9293V35.396C34.4874 32.4148 36.9567 30 39.9848 30ZM39.9949 41.3843C39.5072 41.3843 39.1109 41.7718 39.1109 42.2488V44.4549C39.1109 44.9419 39.5072 45.3294 39.9949 45.3294C40.4928 45.3294 40.8891 44.9419 40.8891 44.4549V42.2488C40.8891 41.7718 40.4928 41.3843 39.9949 41.3843ZM40.0051 31.739C37.9423 31.739 36.2657 33.3688 36.2555 35.3761V36.7137H43.7445V35.396C43.7445 33.3787 42.0678 31.739 40.0051 31.739Z" fill="url(#paint0_linear_12589_24980)"/>
</g>
<defs>
<filter id="filter0_i_12589_24980" x="20" y="16" width="40" height="44" filterUnits="userSpaceOnUse" color-interpolation-filters="sRGB">
<feFlood flood-opacity="0" result="BackgroundImageFix"/>
<feBlend mode="normal" in="SourceGraphic" in2="BackgroundImageFix" result="shape"/>
<feColorMatrix in="SourceAlpha" type="matrix" values="0 0 0 0 0 0 0 0 0 0 0 0 0 0 0 0 0 0 127 0" result="hardAlpha"/>
<feOffset dy="-4"/>
<feGaussianBlur stdDeviation="4"/>
<feComposite in2="hardAlpha" operator="arithmetic" k2="-1" k3="1"/>
<feColorMatrix type="matrix" values="0 0 0 0 1 0 0 0 0 1 0 0 0 0 1 0 0 0 0.4 0"/>
<feBlend mode="normal" in2="shape" result="effect1_innerShadow_12589_24980"/>
</filter>
<linearGradient id="paint0_linear_12589_24980" x1="40" y1="30" x2="40" y2="50" gradientUnits="userSpaceOnUse">
<stop stop-color="white"/>
<stop offset="1" stop-color="white" stop-opacity="0.9"/>
</linearGradient>
</defs>
</svg>
