<svg width="44" height="44" viewBox="0 0 44 44" fill="none" xmlns="http://www.w3.org/2000/svg">
<path fill-rule="evenodd" clip-rule="evenodd" d="M22.0013 2.28906C11.1167 2.28906 2.29297 11.1128 2.29297 21.9974C2.29297 32.8821 11.1167 41.7057 22.0013 41.7057C32.886 41.7057 41.7096 32.8821 41.7096 21.9974C41.7096 11.1128 32.886 2.28906 22.0013 2.28906ZM19.2513 16.4974C19.2513 15.4849 18.4305 14.6641 17.418 14.6641C16.4055 14.6641 15.5846 15.4849 15.5846 16.4974V27.4974C15.5846 28.5099 16.4055 29.3307 17.418 29.3307C18.4305 29.3307 19.2513 28.5099 19.2513 27.4974V16.4974ZM28.418 16.4974C28.418 15.4849 27.5972 14.6641 26.5846 14.6641C25.5721 14.6641 24.7513 15.4849 24.7513 16.4974V27.4974C24.7513 28.5099 25.5721 29.3307 26.5846 29.3307C27.5972 29.3307 28.418 28.5099 28.418 27.4974V16.4974Z" fill="#F40139"/>
</svg>
