<svg width="44" height="44" viewBox="0 0 44 44" fill="none" xmlns="http://www.w3.org/2000/svg">
<path d="M21.9993 3.66602C32.1039 3.66602 40.3327 11.8908 40.3327 22.01C40.3327 32.1079 32.1039 40.3327 21.9993 40.3327C11.8948 40.3327 3.66602 32.1079 3.66602 22.01C3.66602 11.8908 11.8948 3.66602 21.9993 3.66602ZM19.9112 14.7208C19.5219 14.7208 19.1502 14.8093 18.7963 14.9862C18.3539 15.2338 18 15.6229 17.8053 16.0828C17.6815 16.4012 17.4868 17.3563 17.4868 17.374C17.2921 18.4176 17.186 20.1156 17.186 21.9905C17.186 23.7787 17.2921 25.4042 17.4514 26.4655C17.4691 26.4832 17.6638 27.6683 17.8761 28.0751C18.2654 28.818 19.0264 29.2779 19.8404 29.2779H19.9112C20.4421 29.2602 21.5569 28.8003 21.5569 28.7826C23.4327 28.0043 27.1313 25.5811 28.6178 23.9715L28.7239 23.8654C28.9186 23.6708 29.1663 23.3701 29.2194 23.2994C29.5026 22.928 29.6441 22.4681 29.6441 22.01C29.6441 21.4952 29.4849 21.0177 29.184 20.6286C29.1132 20.5578 28.8478 20.2571 28.6001 20.0095C27.149 18.453 23.362 15.9059 21.38 15.1277C21.0791 15.0056 20.3182 14.7385 19.9112 14.7208Z" fill="#12CD69"/>
</svg>
