<svg width="101" height="119" viewBox="0 0 101 119" fill="none" xmlns="http://www.w3.org/2000/svg">
<path fill-rule="evenodd" clip-rule="evenodd" d="M90.4922 66.4688H10.4922V103.493C10.4922 105.259 11.6502 106.817 13.3422 107.325C21.3802 109.735 43.9842 116.517 49.3422 118.125C50.0922 118.349 50.8922 118.349 51.6422 118.125C57.0002 116.517 79.6042 109.735 87.6422 107.325C89.3342 106.817 90.4922 105.259 90.4922 103.493C90.4922 94.2208 90.4922 66.4688 90.4922 66.4688Z" fill="url(#paint0_linear_12636_17336)"/>
<path fill-rule="evenodd" clip-rule="evenodd" d="M90.4928 66.4688H50.4928C50.4928 66.4688 50.1048 118.293 50.4928 118.293C50.8808 118.293 51.2668 118.237 51.6428 118.125C57.0008 116.517 79.6048 109.735 87.6428 107.325C89.3348 106.817 90.4928 105.259 90.4928 103.493C90.4928 94.2208 90.4928 66.4688 90.4928 66.4688Z" fill="url(#paint1_linear_12636_17336)"/>
<path fill-rule="evenodd" clip-rule="evenodd" d="M50.4927 79.4467L10.4927 66.4688C10.4927 66.4688 3.4787 76.8687 0.342696 81.5167C-0.00930449 82.0387 -0.0953047 82.6928 0.108695 83.2868C0.314695 83.8808 0.784695 84.3428 1.3827 84.5387C8.9807 87.0068 31.4727 94.3148 37.3727 96.2308C38.2187 96.5068 39.1467 96.1888 39.6467 95.4508C42.3287 91.4928 50.4927 79.4467 50.4927 79.4467Z" fill="url(#paint2_linear_12636_17336)"/>
<path fill-rule="evenodd" clip-rule="evenodd" d="M90.4922 66.4688L50.4922 79.4467C50.4922 79.4467 58.6562 91.4928 61.3382 95.4508C61.8382 96.1888 62.7662 96.5068 63.6122 96.2308C69.5122 94.3148 92.0042 87.0068 99.6022 84.5387C100.2 84.3428 100.67 83.8808 100.876 83.2868C101.08 82.6928 100.994 82.0387 100.642 81.5167C97.5062 76.8687 90.4922 66.4688 90.4922 66.4688Z" fill="url(#paint3_linear_12636_17336)"/>
<path fill-rule="evenodd" clip-rule="evenodd" d="M40.8108 39.2066C40.3108 38.4726 39.3848 38.1546 38.5388 38.4306C32.6428 40.3446 10.1448 47.6546 2.54676 50.1246C1.94876 50.3186 1.47676 50.7806 1.27276 51.3746C1.06876 51.9686 1.15476 52.6246 1.50676 53.1446C4.39476 57.4286 10.4928 66.4686 10.4928 66.4686L50.4928 53.4466C50.4928 53.4466 43.3088 42.8806 40.8108 39.2066Z" fill="url(#paint4_linear_12636_17336)"/>
<path fill-rule="evenodd" clip-rule="evenodd" d="M99.4782 53.1446C99.8302 52.6246 99.9162 51.9686 99.7122 51.3746C99.5082 50.7806 99.0362 50.3186 98.4382 50.1246C90.8402 47.6546 68.3422 40.3446 62.4462 38.4306C61.6002 38.1546 60.6742 38.4726 60.1742 39.2066C57.6762 42.8806 50.4922 53.4466 50.4922 53.4466L90.4922 66.4686C90.4922 66.4686 96.5902 57.4286 99.4782 53.1446Z" fill="url(#paint5_linear_12636_17336)"/>
<path fill-rule="evenodd" clip-rule="evenodd" d="M90.4922 66.4673L50.4922 53.4453L10.4922 66.4673L50.4922 79.4453L90.4922 66.4673Z" fill="url(#paint6_linear_12636_17336)"/>
<path fill-rule="evenodd" clip-rule="evenodd" d="M50.4922 79.4453V53.4453L10.4922 66.4673L50.4922 79.4453Z" fill="url(#paint7_linear_12636_17336)"/>
<path fill-rule="evenodd" clip-rule="evenodd" d="M42.4553 59.1915C41.6233 58.6475 40.8733 58.0655 40.2073 57.4555C39.3953 56.7095 38.1293 56.7635 37.3813 57.5775C36.6353 58.3895 36.6893 59.6555 37.5033 60.4015C38.3213 61.1535 39.2433 61.8695 40.2673 62.5395C41.1913 63.1435 42.4313 62.8835 43.0353 61.9595C43.6393 61.0355 43.3793 59.7955 42.4553 59.1915Z" fill="url(#paint8_linear_12636_17336)"/>
<path fill-rule="evenodd" clip-rule="evenodd" d="M36.2249 53.0467C35.6309 52.2407 35.1289 51.4307 34.7169 50.6207C34.2169 49.6367 33.0109 49.2447 32.0269 49.7447C31.0429 50.2447 30.6509 51.4507 31.1509 52.4347C31.6589 53.4307 32.2749 54.4287 33.0049 55.4187C33.6589 56.3067 34.9109 56.4967 35.8009 55.8427C36.6889 55.1867 36.8789 53.9347 36.2249 53.0467Z" fill="url(#paint9_linear_12636_17336)"/>
<path fill-rule="evenodd" clip-rule="evenodd" d="M33.3013 44.882C33.3213 44.076 33.4393 43.294 33.6553 42.544C33.9593 41.484 33.3454 40.374 32.2834 40.07C31.2234 39.766 30.1134 40.38 29.8094 41.442C29.5034 42.514 29.3313 43.632 29.3013 44.782C29.2753 45.886 30.1473 46.804 31.2513 46.83C32.3553 46.858 33.2733 45.986 33.3013 44.882Z" fill="url(#paint10_linear_12636_17336)"/>
<path fill-rule="evenodd" clip-rule="evenodd" d="M36.376 38.2048C36.89 37.7288 37.466 37.2888 38.096 36.8908C39.03 36.3008 39.31 35.0648 38.722 34.1328C38.132 33.1988 36.896 32.9188 35.962 33.5068C35.116 34.0408 34.348 34.6308 33.658 35.2708C32.848 36.0208 32.8 37.2868 33.55 38.0968C34.3 38.9068 35.566 38.9548 36.376 38.2048Z" fill="url(#paint11_linear_12636_17336)"/>
<path fill-rule="evenodd" clip-rule="evenodd" d="M43.8132 34.7541C44.8192 34.5681 45.8852 34.4481 47.0092 34.4021C48.1132 34.3541 48.9692 33.4201 48.9232 32.3181C48.8772 31.2161 47.9432 30.3581 46.8392 30.4041C45.5192 30.4601 44.2672 30.6021 43.0852 30.8201C42.0012 31.0221 41.2812 32.0661 41.4832 33.1501C41.6832 34.2361 42.7272 34.9541 43.8132 34.7541Z" fill="url(#paint12_linear_12636_17336)"/>
<path fill-rule="evenodd" clip-rule="evenodd" d="M54.2379 34.6386C55.9439 34.6586 57.5319 34.5986 59.0059 34.4686C60.1059 34.3706 60.9199 33.3986 60.8219 32.2986C60.7239 31.2006 59.7519 30.3866 58.6519 30.4846C57.3019 30.6026 55.8479 30.6586 54.2839 30.6386C53.1799 30.6266 52.2739 31.5126 52.2619 32.6146C52.2479 33.7186 53.1339 34.6266 54.2379 34.6386Z" fill="url(#paint13_linear_12636_17336)"/>
<path fill-rule="evenodd" clip-rule="evenodd" d="M65.5804 33.2406C67.5604 32.6346 69.2324 31.8586 70.6324 30.9686C71.5624 30.3746 71.8384 29.1386 71.2444 28.2066C70.6524 27.2766 69.4144 27.0006 68.4824 27.5946C67.3564 28.3106 66.0064 28.9266 64.4104 29.4146C63.3564 29.7386 62.7604 30.8566 63.0844 31.9126C63.4064 32.9686 64.5264 33.5626 65.5804 33.2406Z" fill="url(#paint14_linear_12636_17336)"/>
<path fill-rule="evenodd" clip-rule="evenodd" d="M75.7604 25.3693C76.7044 23.4173 77.0664 21.3533 76.9744 19.3633C76.9224 18.2593 75.9844 17.4073 74.8824 17.4593C73.7804 17.5113 72.9264 18.4473 72.9784 19.5493C73.0424 20.9013 72.7984 22.3033 72.1584 23.6293C71.6784 24.6233 72.0944 25.8213 73.0884 26.3013C74.0824 26.7813 75.2804 26.3633 75.7604 25.3693Z" fill="url(#paint15_linear_12636_17336)"/>
<path fill-rule="evenodd" clip-rule="evenodd" d="M74.4867 12.2933C73.0287 10.3233 71.0507 8.95135 68.8947 8.50935C67.8127 8.28935 66.7547 8.98535 66.5327 10.0673C66.3127 11.1493 67.0107 12.2073 68.0907 12.4293C69.3347 12.6833 70.4307 13.5373 71.2727 14.6753C71.9307 15.5613 73.1847 15.7473 74.0707 15.0913C74.9587 14.4333 75.1447 13.1793 74.4867 12.2933Z" fill="url(#paint16_linear_12636_17336)"/>
<path fill-rule="evenodd" clip-rule="evenodd" d="M48.3594 8.89598C50.5234 -3.35802 69.2774 -2.56602 58.3594 8.89598H48.3594Z" fill="url(#paint17_linear_12636_17336)"/>
<path fill-rule="evenodd" clip-rule="evenodd" d="M48.3594 12C50.5234 24.252 69.2774 23.462 58.3594 12H48.3594Z" fill="url(#paint18_linear_12636_17336)"/>
<path fill-rule="evenodd" clip-rule="evenodd" d="M48.1777 12.4687H61.5697C62.6737 12.4687 63.5697 11.5728 63.5697 10.4688C63.5697 9.36475 62.6737 8.46875 61.5697 8.46875H48.1777C47.0757 8.46875 46.1777 9.36475 46.1777 10.4688C46.1777 11.5728 47.0757 12.4687 48.1777 12.4687Z" fill="url(#paint19_linear_12636_17336)"/>
<defs>
<linearGradient id="paint0_linear_12636_17336" x1="10.4922" y1="92.3807" x2="90.4922" y2="92.3807" gradientUnits="userSpaceOnUse">
<stop stop-color="#CADCF0"/>
<stop offset="1" stop-color="#A4BBDB"/>
</linearGradient>
<linearGradient id="paint1_linear_12636_17336" x1="50.3208" y1="92.3807" x2="90.4928" y2="92.3807" gradientUnits="userSpaceOnUse">
<stop stop-color="#A4BBDB"/>
<stop offset="1" stop-color="#8DA3BE"/>
</linearGradient>
<linearGradient id="paint2_linear_12636_17336" x1="10.7587" y1="66.4528" x2="16.3492" y2="103.44" gradientUnits="userSpaceOnUse">
<stop stop-color="#E9F3FC"/>
<stop offset="1" stop-color="#CADCF0"/>
</linearGradient>
<linearGradient id="paint3_linear_12636_17336" x1="50.6542" y1="79.3108" x2="92.8216" y2="103.563" gradientUnits="userSpaceOnUse">
<stop stop-color="#E9F3FC"/>
<stop offset="1" stop-color="#CADCF0"/>
</linearGradient>
<linearGradient id="paint4_linear_12636_17336" x1="5.25676" y1="58.7066" x2="11.2908" y2="30.262" gradientUnits="userSpaceOnUse">
<stop stop-color="#E9F3FC"/>
<stop offset="1" stop-color="#CADCF0"/>
</linearGradient>
<linearGradient id="paint5_linear_12636_17336" x1="61.2002" y1="37.9486" x2="63.3578" y2="73.058" gradientUnits="userSpaceOnUse">
<stop stop-color="#E9F3FC"/>
<stop offset="1" stop-color="#CADCF0"/>
</linearGradient>
<linearGradient id="paint6_linear_12636_17336" x1="10.4922" y1="66.4453" x2="90.4922" y2="66.4453" gradientUnits="userSpaceOnUse">
<stop stop-color="#CADCF0"/>
<stop offset="1" stop-color="#A4BBDB"/>
</linearGradient>
<linearGradient id="paint7_linear_12636_17336" x1="54.5882" y1="52.8633" x2="55.4502" y2="85.1693" gradientUnits="userSpaceOnUse">
<stop stop-color="#A4BBDB"/>
<stop offset="1" stop-color="#8DA3BE"/>
</linearGradient>
<linearGradient id="paint8_linear_12636_17336" x1="28.4733" y1="8.89755" x2="67.9213" y2="55.4435" gradientUnits="userSpaceOnUse">
<stop stop-color="#559AFF"/>
<stop offset="1" stop-color="#2E69EF"/>
</linearGradient>
<linearGradient id="paint9_linear_12636_17336" x1="28.4749" y1="8.89666" x2="67.9229" y2="55.4426" gradientUnits="userSpaceOnUse">
<stop stop-color="#559AFF"/>
<stop offset="1" stop-color="#2E69EF"/>
</linearGradient>
<linearGradient id="paint10_linear_12636_17336" x1="28.4753" y1="8.89398" x2="67.9233" y2="55.44" gradientUnits="userSpaceOnUse">
<stop stop-color="#559AFF"/>
<stop offset="1" stop-color="#2E69EF"/>
</linearGradient>
<linearGradient id="paint11_linear_12636_17336" x1="28.474" y1="8.89684" x2="67.922" y2="55.4428" gradientUnits="userSpaceOnUse">
<stop stop-color="#559AFF"/>
<stop offset="1" stop-color="#2E69EF"/>
</linearGradient>
<linearGradient id="paint12_linear_12636_17336" x1="28.4732" y1="8.8961" x2="67.9212" y2="55.4421" gradientUnits="userSpaceOnUse">
<stop stop-color="#559AFF"/>
<stop offset="1" stop-color="#2E69EF"/>
</linearGradient>
<linearGradient id="paint13_linear_12636_17336" x1="28.4739" y1="8.89857" x2="67.9219" y2="55.4446" gradientUnits="userSpaceOnUse">
<stop stop-color="#559AFF"/>
<stop offset="1" stop-color="#2E69EF"/>
</linearGradient>
<linearGradient id="paint14_linear_12636_17336" x1="28.4744" y1="8.89661" x2="67.9224" y2="55.4426" gradientUnits="userSpaceOnUse">
<stop stop-color="#559AFF"/>
<stop offset="1" stop-color="#2E69EF"/>
</linearGradient>
<linearGradient id="paint15_linear_12636_17336" x1="28.4744" y1="8.89529" x2="67.9224" y2="55.4413" gradientUnits="userSpaceOnUse">
<stop stop-color="#559AFF"/>
<stop offset="1" stop-color="#2E69EF"/>
</linearGradient>
<linearGradient id="paint16_linear_12636_17336" x1="28.4747" y1="8.89735" x2="67.9227" y2="55.4434" gradientUnits="userSpaceOnUse">
<stop stop-color="#559AFF"/>
<stop offset="1" stop-color="#2E69EF"/>
</linearGradient>
<linearGradient id="paint17_linear_12636_17336" x1="48.3594" y1="4.44798" x2="61.7494" y2="4.44798" gradientUnits="userSpaceOnUse">
<stop stop-color="#E9F3FC"/>
<stop offset="1" stop-color="#CADCF0"/>
</linearGradient>
<linearGradient id="paint18_linear_12636_17336" x1="48.3594" y1="16.448" x2="61.7494" y2="16.448" gradientUnits="userSpaceOnUse">
<stop stop-color="#E9F3FC"/>
<stop offset="1" stop-color="#CADCF0"/>
</linearGradient>
<linearGradient id="paint19_linear_12636_17336" x1="28.4737" y1="8.89675" x2="67.9217" y2="55.4428" gradientUnits="userSpaceOnUse">
<stop stop-color="#559AFF"/>
<stop offset="1" stop-color="#2E69EF"/>
</linearGradient>
</defs>
</svg>
