<svg width="38" height="38" viewBox="0 0 38 38" fill="none" xmlns="http://www.w3.org/2000/svg">
<g filter="url(#filter0_dd_12825_27651)">
<path d="M3 12C3 6.47715 7.47715 2 13 2H25C30.5228 2 35 6.47715 35 12V24C35 29.5228 30.5228 34 25 34H13C7.47715 34 3 29.5228 3 24V12Z" fill="#12CD69"/>
<path d="M28.5648 13.0266C28.5066 12.916 28.2348 12.4266 27.3039 11.4984C26.3758 10.5676 25.8863 10.2957 25.7758 10.2375C25.593 10.1422 25.316 10.15 25.1508 10.2598C25.0158 10.3527 24.8931 10.4623 24.7855 10.5859C24.6773 10.7085 24.5843 10.8437 24.5086 10.9887C24.4184 11.1641 24.4391 11.4375 24.5477 11.6023C24.5941 11.6738 24.7699 11.8813 25.1727 12.3027L24.1406 13.3359C22.9332 12.3677 21.4761 11.7615 19.9383 11.5875V10.5051C21.0465 10.4926 21.9305 10.4617 22.0422 10.4375C22.2766 10.3875 22.5238 10.1738 22.598 9.94805C22.6565 9.75939 22.6921 9.56436 22.7039 9.36719C22.7173 9.17007 22.706 8.97205 22.6703 8.77773C22.6238 8.54336 22.3945 8.30195 22.1574 8.22734C22.0141 8.1832 20.5844 8 19.0008 8C17.4172 8 15.9875 8.1832 15.8441 8.22773C15.607 8.30234 15.3777 8.54492 15.3312 8.77812C15.2956 8.97232 15.2843 9.1702 15.2977 9.36719C15.3095 9.56423 15.345 9.75912 15.4035 9.94766C15.4777 10.1734 15.7258 10.3871 15.9594 10.4371C16.0727 10.4613 16.9551 10.4922 18.0633 10.5047V11.5875C13.9578 12.0527 10.7676 15.5391 10.7676 19.7668C10.7676 24.3141 14.4539 28 19.0008 28C23.5477 28 27.234 24.3141 27.234 19.7668C27.2366 17.9151 26.6123 16.117 25.4629 14.6652L26.5008 13.6285C26.9227 14.0336 27.1297 14.2094 27.2016 14.2559C27.368 14.3633 27.6391 14.3836 27.8152 14.2949C27.9597 14.2183 28.0944 14.1245 28.2164 14.0156C28.3399 13.9077 28.4494 13.7849 28.5426 13.65C28.6523 13.4863 28.6602 13.209 28.5648 13.0266ZM19.743 19.7672C19.743 19.964 19.6648 20.1528 19.5256 20.292C19.3864 20.4312 19.1976 20.5094 19.0008 20.5094C18.8039 20.5094 18.6152 20.4312 18.476 20.292C18.3368 20.1528 18.2586 19.964 18.2586 19.7672V14.6062C18.2586 14.4094 18.3368 14.2206 18.476 14.0814C18.6152 13.9423 18.8039 13.8641 19.0008 13.8641C19.1976 13.8641 19.3864 13.9423 19.5256 14.0814C19.6648 14.2206 19.743 14.4094 19.743 14.6062V19.7672Z" fill="white"/>
</g>
<defs>
<filter id="filter0_dd_12825_27651" x="0" y="0" width="38" height="38" filterUnits="userSpaceOnUse" color-interpolation-filters="sRGB">
<feFlood flood-opacity="0" result="BackgroundImageFix"/>
<feColorMatrix in="SourceAlpha" type="matrix" values="0 0 0 0 0 0 0 0 0 0 0 0 0 0 0 0 0 0 127 0" result="hardAlpha"/>
<feOffset dy="1"/>
<feGaussianBlur stdDeviation="1"/>
<feColorMatrix type="matrix" values="0 0 0 0 0.0941176 0 0 0 0 0.137255 0 0 0 0 0.133333 0 0 0 0.06 0"/>
<feBlend mode="normal" in2="BackgroundImageFix" result="effect1_dropShadow_12825_27651"/>
<feColorMatrix in="SourceAlpha" type="matrix" values="0 0 0 0 0 0 0 0 0 0 0 0 0 0 0 0 0 0 127 0" result="hardAlpha"/>
<feOffset dy="1"/>
<feGaussianBlur stdDeviation="1.5"/>
<feColorMatrix type="matrix" values="0 0 0 0 0.0941176 0 0 0 0 0.137255 0 0 0 0 0.133333 0 0 0 0.1 0"/>
<feBlend mode="normal" in2="effect1_dropShadow_12825_27651" result="effect2_dropShadow_12825_27651"/>
<feBlend mode="normal" in="SourceGraphic" in2="effect2_dropShadow_12825_27651" result="shape"/>
</filter>
</defs>
</svg>
