<svg width="128" height="128" viewBox="0 0 128 128" fill="none" xmlns="http://www.w3.org/2000/svg">
<rect width="128" height="128" rx="64" fill="#F6F7F9"/>
<path fill-rule="evenodd" clip-rule="evenodd" d="M88.4192 41.6744V76.7981C88.4192 78.093 87.9058 79.3349 86.9876 80.2502L74.6695 92.5684C73.7541 93.4865 72.5123 94 71.2174 94H47.2564C45.222 94 43.2685 93.1907 41.8285 91.7535C40.3913 90.3135 39.582 88.36 39.582 86.3256V41.6744C39.582 39.64 40.3913 37.6865 41.8285 36.2465C43.2685 34.8093 45.222 34 47.2564 34H80.7448C82.7792 34 84.7327 34.8093 86.1727 36.2465C87.6099 37.6865 88.4192 39.64 88.4192 41.6744ZM70.9774 89.1163L83.5355 76.5581H73.7681C72.2276 76.5581 70.9774 77.8084 70.9774 79.3488V89.1163ZM52.8378 49.3488H75.1634C76.3188 49.3488 77.2564 48.4112 77.2564 47.2558C77.2564 46.1005 76.3188 45.1628 75.1634 45.1628H52.8378C51.6825 45.1628 50.7448 46.1005 50.7448 47.2558C50.7448 48.4112 51.6825 49.3488 52.8378 49.3488ZM52.8378 82.8372H62.6053C63.7606 82.8372 64.6983 81.8995 64.6983 80.7442C64.6983 79.5888 63.7606 78.6512 62.6053 78.6512H52.8378C51.6825 78.6512 50.7448 79.5888 50.7448 80.7442C50.7448 81.8995 51.6825 82.8372 52.8378 82.8372ZM52.8378 71.6744H66.7913C67.9467 71.6744 68.8844 70.7367 68.8844 69.5814C68.8844 68.426 67.9467 67.4884 66.7913 67.4884H52.8378C51.6825 67.4884 50.7448 68.426 50.7448 69.5814C50.7448 70.7367 51.6825 71.6744 52.8378 71.6744ZM52.8378 60.5116H75.1634C76.3188 60.5116 77.2564 59.574 77.2564 58.4186C77.2564 57.2633 76.3188 56.3256 75.1634 56.3256H52.8378C51.6825 56.3256 50.7448 57.2633 50.7448 58.4186C50.7448 59.574 51.6825 60.5116 52.8378 60.5116Z" fill="url(#paint0_linear_12763_30997)"/>
<defs>
<linearGradient id="paint0_linear_12763_30997" x1="39.5826" y1="64" x2="88.4192" y2="64" gradientUnits="userSpaceOnUse">
<stop stop-color="#A4BBDB"/>
<stop offset="1" stop-color="#8DA3BE"/>
</linearGradient>
</defs>
</svg>
