<svg width="18" height="20" viewBox="0 0 18 20" fill="none" xmlns="http://www.w3.org/2000/svg">
<path d="M17.7973 5.02656C17.7391 4.91602 17.4672 4.42656 16.5363 3.49844C15.6082 2.56758 15.1187 2.2957 15.0082 2.2375C14.8254 2.14219 14.5484 2.15 14.3832 2.25977C14.2482 2.35269 14.1255 2.46228 14.018 2.58594C13.9097 2.7085 13.8167 2.84373 13.741 2.98867C13.6508 3.16406 13.6715 3.4375 13.7801 3.60234C13.8266 3.67383 14.0023 3.88125 14.4051 4.30273L13.373 5.33594C12.1656 4.36771 10.7086 3.76148 9.1707 3.5875V2.50508C10.2789 2.49258 11.1629 2.46172 11.2746 2.4375C11.509 2.3875 11.7562 2.17383 11.8305 1.94805C11.889 1.75939 11.9245 1.56436 11.9363 1.36719C11.9497 1.17007 11.9384 0.972053 11.9027 0.777734C11.8562 0.543359 11.627 0.301953 11.3898 0.227344C11.2465 0.183203 9.8168 0 8.2332 0C6.64961 0 5.21992 0.183203 5.07656 0.227734C4.83945 0.302344 4.61016 0.544922 4.56367 0.778125C4.528 0.972316 4.51672 1.1702 4.53008 1.36719C4.54192 1.56423 4.57747 1.75912 4.63594 1.94766C4.71016 2.17344 4.9582 2.38711 5.1918 2.43711C5.30508 2.46133 6.1875 2.49219 7.2957 2.50469V3.5875C3.19023 4.05273 0 7.53906 0 11.7668C0 16.3141 3.68633 20 8.2332 20C12.7801 20 16.4664 16.3141 16.4664 11.7668C16.469 9.91508 15.8448 8.117 14.6953 6.66523L15.7332 5.62852C16.1551 6.03359 16.3621 6.20937 16.434 6.25586C16.6004 6.36328 16.8715 6.38359 17.0477 6.29492C17.1921 6.21828 17.3268 6.12451 17.4488 6.01562C17.5723 5.90775 17.6819 5.78493 17.775 5.65C17.8848 5.48633 17.8926 5.20898 17.7973 5.02656ZM8.97539 11.7672C8.97539 11.964 8.8972 12.1528 8.75801 12.292C8.61882 12.4312 8.43004 12.5094 8.2332 12.5094C8.03636 12.5094 7.84758 12.4312 7.7084 12.292C7.56921 12.1528 7.49101 11.964 7.49101 11.7672V6.60625C7.49101 6.40941 7.56921 6.22063 7.7084 6.08144C7.84758 5.94226 8.03636 5.86406 8.2332 5.86406C8.43004 5.86406 8.61882 5.94226 8.75801 6.08144C8.8972 6.22063 8.97539 6.40941 8.97539 6.60625V11.7672Z" fill="white"/>
</svg>
