<svg width="75" height="75" viewBox="0 0 75 75" fill="none" xmlns="http://www.w3.org/2000/svg">
<rect width="75" height="75" rx="37.5" fill="#0788F3" fill-opacity="0.1"/>
<path opacity="0.4" d="M32.6542 23.25C32.2461 23.3959 31.846 23.5582 31.4548 23.7359M27.6376 26.1986C27.2978 26.4965 26.9716 26.8089 26.6601 27.1348M24.0477 30.8473C23.769 31.4072 23.5247 31.9865 23.3175 32.5825M22.5241 36.5874C22.4908 37.1715 22.4921 37.767 22.5275 38.3513M23.3527 42.3991C23.5522 42.9599 23.7846 43.5057 24.0477 44.0342M26.5363 47.6158C26.9027 48.0081 27.2899 48.3814 27.6963 48.7342M31.1646 51.0102C31.7562 51.2937 32.369 51.5416 33.0001 51.7507" stroke="#0788F3" stroke-width="3" stroke-linecap="round" stroke-linejoin="round"/>
<path d="M37.5 52.5007C45.7843 52.5007 52.5002 45.7847 52.5002 37.5003C52.5002 29.2159 45.7843 22.5 37.5 22.5" stroke="#0788F3" stroke-width="3" stroke-linecap="round"/>
<path opacity="0.4" d="M37.499 39.7503C38.7417 39.7503 39.7491 38.7428 39.7491 37.5002C39.7491 36.2576 38.7417 35.2502 37.499 35.2502M37.499 39.7503C36.2564 39.7503 35.249 38.7428 35.249 37.5002C35.249 36.2576 36.2564 35.2502 37.499 35.2502M37.499 39.7503V43.5003M37.499 35.2502V28.5" stroke="#0788F3" stroke-width="3" stroke-linecap="round"/>
</svg>
